<svg width="24" height="24" viewBox="0 0 24 24" fill="none" xmlns="http://www.w3.org/2000/svg">
<mask id="mask0_17677_2700" style="mask-type:luminance" maskUnits="userSpaceOnUse" x="1" y="1" width="22" height="22">
<path d="M23 12C23 5.92487 18.0751 1 12 1C5.92487 1 1 5.92487 1 12C1 18.0751 5.92487 23 12 23C18.0751 23 23 18.0751 23 12Z" fill="white"/>
</mask>
<g mask="url(#mask0_17677_2700)">
<path d="M23 12C23 5.92487 18.0751 1 12 1C5.92487 1 1 5.92487 1 12C1 18.0751 5.92487 23 12 23C18.0751 23 23 18.0751 23 12Z" fill="#1C7ED6"/>
<path d="M1.18718 -6.56259L-8.625 -0.212891L17.7162 40.4921L27.5284 34.1424L1.18718 -6.56259Z" fill="white" fill-opacity="0.07"/>
</g>
<path d="M8.50923 10.8193C8.73924 10.8193 8.92428 10.8823 9.06439 11.0082C9.20444 11.1329 9.2745 11.3334 9.2745 11.6097V13.0149H8.68654V11.7562C8.68654 11.602 8.65828 11.4857 8.60175 11.4073C8.54649 11.3289 8.45908 11.2897 8.33958 11.2897C8.15965 11.2897 8.03689 11.3507 7.97137 11.4728C7.90584 11.5949 7.87304 11.771 7.87304 12.001V13.0149H7.28516V10.8598H7.73427L7.81332 11.1355H7.84606C7.89238 11.0609 7.94955 11.0005 8.01762 10.9543C8.08704 10.908 8.16348 10.874 8.24706 10.8521C8.33186 10.8303 8.41927 10.8193 8.50923 10.8193Z" fill="white"/>
<path d="M6.6657 10.8592V13.0144H6.07781V10.8592H6.6657ZM6.37271 10.0149C6.46012 10.0149 6.53528 10.0355 6.59826 10.0766C6.66123 10.1164 6.69269 10.1916 6.69269 10.3021C6.69269 10.4114 6.66123 10.4872 6.59826 10.5296C6.53528 10.5707 6.46012 10.5913 6.37271 10.5913C6.28402 10.5913 6.20822 10.5707 6.14525 10.5296C6.08355 10.4872 6.05273 10.4114 6.05273 10.3021C6.05273 10.1916 6.08355 10.1164 6.14525 10.0766C6.20822 10.0355 6.28402 10.0149 6.37271 10.0149Z" fill="white"/>
<path d="M5.76993 10.1968L5.05278 13.015H4.37238L3.99067 11.5346C3.98295 11.5063 3.97268 11.4633 3.95983 11.4054C3.94697 11.3476 3.93348 11.2846 3.91934 11.2165C3.9052 11.1471 3.89235 11.0822 3.88079 11.0218C3.87051 10.9601 3.86344 10.9113 3.85958 10.8753C3.85573 10.9113 3.84802 10.9595 3.83645 11.0199C3.82617 11.0803 3.81396 11.1445 3.79982 11.2127C3.78697 11.2808 3.77412 11.3444 3.76127 11.4035C3.74842 11.4626 3.73814 11.5076 3.73043 11.5384L3.35068 13.015H2.67214L1.95312 10.1968H2.54106L2.90154 11.7351C2.91182 11.7813 2.92338 11.8366 2.93623 11.9008C2.95037 11.9651 2.96386 12.0326 2.97671 12.1033C2.99085 12.1726 3.00306 12.2401 3.01334 12.3057C3.0249 12.3699 3.03326 12.4258 3.0384 12.4733C3.04482 12.4245 3.05318 12.368 3.06346 12.3037C3.07374 12.2381 3.08466 12.172 3.09623 12.1052C3.10908 12.037 3.12193 11.9741 3.13479 11.9163C3.14764 11.8585 3.1592 11.8115 3.16948 11.7755L3.58007 10.1968H4.14488L4.55549 11.7755C4.56449 11.8102 4.57476 11.8571 4.58631 11.9163C4.5992 11.9741 4.61202 12.037 4.62485 12.1052C4.63774 12.1733 4.64928 12.2401 4.65956 12.3057C4.6711 12.3699 4.67946 12.4258 4.68463 12.4733C4.69363 12.4091 4.70581 12.3314 4.72125 12.2401C4.73797 12.1475 4.75533 12.0557 4.77332 11.9644C4.79259 11.8732 4.8093 11.7968 4.8234 11.7351L5.18198 10.1968H5.76993Z" fill="white"/>
<path d="M22.0449 12.3346C22.0449 12.4817 22.009 12.6059 21.9375 12.7072C21.8659 12.8085 21.7613 12.8855 21.6237 12.9381C21.4873 12.9893 21.3199 13.015 21.1214 13.015C20.9648 13.015 20.8298 13.0036 20.7164 12.9805C20.6043 12.9589 20.4983 12.9253 20.3984 12.8793V12.4682C20.5051 12.5182 20.6245 12.5614 20.7569 12.5978C20.8906 12.6343 21.0168 12.6525 21.1356 12.6525C21.2922 12.6525 21.4049 12.6282 21.4738 12.5796C21.5426 12.5296 21.5771 12.4635 21.5771 12.3811C21.5771 12.3325 21.5629 12.2893 21.5345 12.2515C21.5075 12.2123 21.4562 12.1725 21.3807 12.1321C21.3063 12.0902 21.197 12.0403 21.0525 11.9822C20.9108 11.9255 20.7913 11.8688 20.6942 11.8121C20.5969 11.7554 20.5233 11.6873 20.4734 11.6075C20.4234 11.5265 20.3984 11.4233 20.3984 11.2977C20.3984 11.0993 20.4767 10.9487 20.6333 10.8461C20.7913 10.7422 20.9999 10.6902 21.2592 10.6902C21.3968 10.6902 21.5264 10.7044 21.6479 10.7327C21.7707 10.7597 21.8909 10.7995 22.0084 10.8522L21.8586 11.2107C21.7573 11.166 21.6554 11.1296 21.5527 11.1012C21.4515 11.0716 21.3482 11.0567 21.2429 11.0567C21.1201 11.0567 21.0262 11.0757 20.9614 11.1134C20.8979 11.1512 20.8662 11.2052 20.8662 11.2755C20.8662 11.3281 20.8818 11.3726 20.9128 11.4092C20.9439 11.4456 20.9972 11.482 21.0728 11.5185C21.1497 11.5549 21.2564 11.6001 21.3927 11.6542C21.5264 11.7055 21.6419 11.7594 21.739 11.8161C21.8376 11.8715 21.9132 11.9397 21.9658 12.0207C22.0186 12.1017 22.0449 12.2063 22.0449 12.3346Z" fill="white"/>
<path d="M19.1135 10.6902C19.3646 10.6902 19.5537 10.755 19.6806 10.8846C19.8089 11.0143 19.8729 11.2221 19.8729 11.5083V12.9745H19.3971V11.5934C19.3971 11.4233 19.364 11.295 19.2978 11.2086C19.2316 11.1222 19.131 11.079 18.9961 11.079C18.8071 11.079 18.6707 11.1397 18.587 11.2612C18.5046 11.3814 18.4635 11.5562 18.4635 11.7858V12.9745H17.9876V11.5934C17.9876 11.48 17.9728 11.3855 17.943 11.3099C17.9146 11.2329 17.8708 11.1756 17.8113 11.1377C17.752 11.0986 17.677 11.079 17.5866 11.079C17.4557 11.079 17.351 11.1087 17.2727 11.1681C17.1958 11.2276 17.1404 11.3153 17.1066 11.4314C17.0729 11.5461 17.0561 11.6873 17.0561 11.8546V12.9745H16.5801V10.7327H16.9507L17.0176 11.0344H17.0439C17.0898 10.9561 17.1465 10.892 17.214 10.8421C17.2829 10.7908 17.3591 10.7529 17.4429 10.7287C17.5265 10.703 17.6136 10.6902 17.7041 10.6902C17.8714 10.6902 18.0126 10.7199 18.1273 10.7793C18.2421 10.8374 18.3278 10.9264 18.3846 11.0466H18.421C18.4912 10.9251 18.5891 10.8353 18.7145 10.7773C18.8401 10.7193 18.9731 10.6902 19.1135 10.6902Z" fill="white"/>
<path d="M15.9251 10.6902C15.9629 10.6902 16.0042 10.6922 16.0487 10.6962C16.0932 10.7003 16.1317 10.7056 16.1641 10.7124L16.1195 11.158C16.0911 11.1499 16.056 11.1438 16.0142 11.1397C15.9737 11.1356 15.9373 11.1337 15.9049 11.1337C15.8198 11.1337 15.7388 11.1478 15.6619 11.1762C15.5849 11.2032 15.5167 11.2451 15.4574 11.3018C15.3979 11.3572 15.3513 11.4266 15.3176 11.5104C15.2839 11.594 15.267 11.6912 15.267 11.802V12.9745H14.7891V10.7327H15.1616L15.2264 11.1275H15.2487C15.2933 11.0479 15.3486 10.975 15.4148 10.9089C15.481 10.8427 15.5565 10.7901 15.6416 10.7509C15.728 10.7105 15.8226 10.6902 15.9251 10.6902Z" fill="white"/>
<path d="M14.2432 11.8486C14.2432 12.0349 14.2189 12.2003 14.1703 12.3447C14.1217 12.4891 14.0508 12.6113 13.9577 12.7112C13.8645 12.8098 13.7525 12.8855 13.6214 12.9381C13.4905 12.9893 13.3427 13.015 13.178 13.015C13.0241 13.015 12.883 12.9893 12.7547 12.9381C12.6265 12.8855 12.5151 12.8098 12.4206 12.7112C12.3274 12.6113 12.2552 12.4891 12.2039 12.3447C12.1526 12.2003 12.127 12.0349 12.127 11.8486C12.127 11.6015 12.1695 11.3923 12.2545 11.2208C12.3409 11.0479 12.4638 10.9163 12.6231 10.8259C12.7824 10.7354 12.9721 10.6902 13.1922 10.6902C13.3987 10.6902 13.581 10.7354 13.739 10.8259C13.8969 10.9163 14.0204 11.0479 14.1096 11.2208C14.1986 11.3936 14.2432 11.6028 14.2432 11.8486ZM12.617 11.8486C12.617 12.0119 12.6366 12.1516 12.6758 12.2677C12.7163 12.3839 12.7784 12.4729 12.8621 12.5351C12.9458 12.5958 13.0538 12.6262 13.1861 12.6262C13.3184 12.6262 13.4263 12.5958 13.5101 12.5351C13.5938 12.4729 13.6552 12.3839 13.6944 12.2677C13.7335 12.1516 13.7531 12.0119 13.7531 11.8486C13.7531 11.6852 13.7335 11.5468 13.6944 11.4334C13.6552 11.3187 13.5938 11.2316 13.5101 11.1722C13.4263 11.1114 13.3178 11.081 13.1841 11.081C12.9869 11.081 12.8432 11.1472 12.7527 11.2795C12.6623 11.4118 12.617 11.6015 12.617 11.8486Z" fill="white"/>
<path d="M10.5796 12.9759H10.0977V10.0151H11.7704V10.4243H10.5796V11.3477H11.6934V11.7547H10.5796V12.9759Z" fill="white"/>
</svg>
