<svg width="24" height="24" viewBox="0 0 24 24" fill="none" xmlns="http://www.w3.org/2000/svg">
<g clip-path="url(#clip0_14402_410)">
<path d="M20.4 0H3.6C1.61177 0 0 1.61177 0 3.6V20.4C0 22.3882 1.61177 24 3.6 24H20.4C22.3882 24 24 22.3882 24 20.4V3.6C24 1.61177 22.3882 0 20.4 0Z" fill="#3178C6"/>
<path d="M10.9219 13.3134H13.9219V11.3915H5.53125V13.3134H8.53125V21.8915H10.9219V13.3134ZM14.8594 21.4227C15.2391 21.6196 15.7031 21.7649 16.2188 21.8634C16.7344 21.9618 17.2969 22.0087 17.8594 22.0087C18.4219 22.0087 18.9375 21.9571 19.4531 21.8493C19.9688 21.7415 20.3906 21.5634 20.7656 21.3337C21.1453 21.0852 21.4688 20.7712 21.6562 20.3493C21.8438 19.9274 21.9891 19.4587 21.9891 18.8493C21.9891 18.4227 21.9234 18.0524 21.7969 17.7243C21.6703 17.3962 21.4875 17.1149 21.2344 16.8805C20.9953 16.6321 20.7188 16.4118 20.3906 16.2243C20.0625 16.0368 19.6875 15.8399 19.2656 15.6618C18.9563 15.5352 18.7031 15.4134 18.4219 15.2915C18.1781 15.1696 17.9672 15.0477 17.8125 14.9259C17.6391 14.7993 17.5078 14.668 17.4141 14.5321C17.3203 14.3915 17.2734 14.2368 17.2734 14.0634C17.2734 13.904 17.3152 13.7587 17.4 13.6274C17.4848 13.4962 17.6016 13.3884 17.7516 13.2946C17.9016 13.2009 18.0891 13.1305 18.3141 13.079C18.5344 13.0274 18.7781 13.004 19.0641 13.004C19.2609 13.004 19.4672 13.0185 19.6734 13.048C19.8891 13.0776 20.1094 13.123 20.3297 13.184C20.55 13.2449 20.7656 13.3199 20.9859 13.4137C21.1922 13.5074 21.3844 13.6152 21.5484 13.7371V11.534C21.1922 11.398 20.7984 11.2949 20.3766 11.2293C19.9547 11.1637 19.4859 11.1309 18.9234 11.1309C18.3609 11.1309 17.8453 11.1918 17.3297 11.309C16.8141 11.4262 16.3922 11.6137 16.0172 11.8715C15.6375 12.1246 15.3609 12.434 15.1266 12.8559C14.9063 13.2496 14.7984 13.6996 14.7984 14.2621C14.7984 14.9652 15 15.5746 15.4078 16.0434C15.8109 16.559 16.4391 16.934 17.2359 17.309C17.5594 17.4402 17.8453 17.5715 18.1266 17.698C18.4078 17.8246 18.6422 17.9559 18.8297 18.0918C19.0313 18.2277 19.1906 18.3777 19.2984 18.5371C19.4156 18.6965 19.4766 18.884 19.4766 19.0996C19.4766 19.2496 19.44 19.3902 19.3688 19.5215C19.2975 19.6527 19.1859 19.7652 19.0359 19.859C18.8859 19.9527 18.7031 20.0277 18.4734 20.084C18.2531 20.1355 18.0047 20.1637 17.6766 20.1637C17.1609 20.1637 16.6453 20.0746 16.1766 19.8965C15.6609 19.7184 15.1922 19.4512 14.8594 19.1727V21.4227Z" fill="white"/>
</g>
<defs>
<clipPath id="clip0_14402_410">
<rect width="24" height="24" fill="white"/>
</clipPath>
</defs>
</svg>
