<svg width="24" height="24" viewBox="0 0 24 24" fill="none" xmlns="http://www.w3.org/2000/svg">
<g clip-path="url(#clip0_16080_5111)">
<path d="M8.24805 3.83063C8.98145 6.07444 9.25931 10.0749 11.4039 10.0749C11.5672 10.0749 11.7321 10.0596 11.8978 10.0278C9.94821 9.57374 9.71716 5.61524 8.52754 3.56604C8.43426 3.65126 8.34164 3.73904 8.24805 3.83063Z" fill="url(#paint0_linear_16080_5111)"/>
<path d="M8.52734 3.56636C9.71697 5.61556 9.94802 9.57405 11.8976 10.0282C12.0507 10.0002 12.2042 9.9569 12.358 9.90347C10.6081 9.04614 10.1244 5.20343 8.77345 3.35266C8.69163 3.42135 8.60949 3.49258 8.52734 3.56636Z" fill="url(#paint1_linear_16080_5111)"/>
<path d="M10.2397 2.34778C10.0767 2.34778 9.91139 2.36307 9.74548 2.39487C9.31151 2.47627 8.8707 2.66325 8.42627 2.9469C8.54767 3.06647 8.66318 3.20385 8.77184 3.35267C9.2238 2.97743 9.67283 2.70016 10.1202 2.53352C10.2881 2.4712 10.4553 2.42538 10.6232 2.39358C10.5021 2.36306 10.3745 2.34778 10.2397 2.34778Z" fill="#14559A"/>
<path d="M13.7286 9.11345C13.9077 8.97098 14.087 8.81325 14.2667 8.64153C13.5215 6.40916 13.2547 2.35022 11.0951 2.35022C10.9406 2.35022 10.7849 2.36548 10.6294 2.39346C12.5966 2.88319 12.8486 7.16347 13.7286 9.11345Z" fill="url(#paint2_linear_16080_5111)"/>
<path d="M10.6262 2.39358C10.5051 2.36306 10.3775 2.34778 10.2427 2.34778L11.0919 2.35034C10.9375 2.35034 10.7817 2.36433 10.6262 2.39358Z" fill="#3092C4"/>
<path d="M13.6897 9.58813C13.6053 9.50673 13.5251 9.41896 13.4462 9.32483C13.0829 9.58177 12.721 9.77637 12.3613 9.90357C12.4893 9.9659 12.6234 10.013 12.7658 10.0422C12.8761 10.0639 12.9903 10.0753 13.1104 10.0753C13.514 10.0753 13.8331 10.0283 14.1047 9.89725C13.9552 9.81711 13.8181 9.71152 13.6897 9.58813Z" fill="#1969BC"/>
<path d="M10.123 2.53584C11.8851 3.45677 12.0382 7.63023 13.4442 9.32581C13.5384 9.25839 13.6317 9.18841 13.725 9.11464C12.8449 7.16466 12.5933 2.88437 10.6264 2.39465C10.4585 2.42645 10.2909 2.47224 10.123 2.53584Z" fill="url(#paint3_linear_16080_5111)"/>
<path d="M8.77783 3.35318C10.1288 5.20395 10.6125 9.04667 12.3624 9.904C12.7221 9.7768 13.084 9.5822 13.4473 9.32525C12.0414 7.62967 11.8882 3.45621 10.1262 2.53528C9.67881 2.70064 9.22979 2.97794 8.77783 3.35318Z" fill="url(#paint4_linear_16080_5111)"/>
<path d="M7.38146 3.77777C7.16971 4.25604 6.95339 4.88568 6.69189 5.70739C7.21193 4.97472 7.73032 4.3438 8.24578 3.83118C8.17475 3.61367 8.09851 3.41141 8.01637 3.23206C7.8056 3.3936 7.5932 3.57552 7.38146 3.77777Z" fill="url(#paint5_linear_16080_5111)"/>
<path d="M8.20704 3.09534C8.14486 3.13986 8.08236 3.18566 8.01953 3.234C8.10166 3.41335 8.17759 3.61433 8.24862 3.83184C8.34219 3.74026 8.43513 3.65248 8.52808 3.56725C8.42828 3.39553 8.32224 3.2378 8.20704 3.09534Z" fill="#2B74B1"/>
<path d="M8.42696 2.94495C8.353 2.99201 8.27938 3.04162 8.20508 3.09378C8.32027 3.23497 8.42631 3.39397 8.52646 3.56569C8.60861 3.49192 8.69075 3.41941 8.77257 3.352C8.66391 3.2019 8.5484 3.06579 8.42696 2.94495Z" fill="#125A9E"/>
<path d="M20.4451 2.17688C19.4486 6.02088 17.3672 9.10803 15.6222 9.8865H15.6188C15.5871 9.90049 15.5556 9.91318 15.5246 9.9259C15.5203 9.92845 15.5165 9.92972 15.5132 9.93099C15.504 9.9348 15.4955 9.93738 15.4863 9.9412C15.482 9.94374 15.4781 9.94501 15.4741 9.94628C15.4595 9.95137 15.445 9.95645 15.4306 9.96154C15.4244 9.96408 15.4185 9.96536 15.4127 9.9679C15.4061 9.97045 15.3986 9.97297 15.3911 9.97551C15.3844 9.97806 15.3776 9.97933 15.3701 9.98188C15.3638 9.98442 15.3573 9.9857 15.3515 9.98824C15.3387 9.99206 15.327 9.99588 15.3141 9.9997C15.3089 9.9997 15.3041 10.0022 15.2985 10.0035C15.2906 10.006 15.2817 10.0086 15.2732 10.0111C15.2673 10.0137 15.2625 10.0137 15.2562 10.015C15.2473 10.0188 15.2375 10.0201 15.2288 10.0226C15.2169 10.0251 15.2065 10.0277 15.1953 10.0302C15.2742 10.0595 15.3563 10.0735 15.445 10.0735C17.0997 10.0735 18.768 7.10844 21.5286 2.17688H20.4451Z" fill="url(#paint6_linear_16080_5111)"/>
<path d="M6.33438 2.50257C6.33542 2.50257 6.33672 2.50004 6.33737 2.50004C6.33867 2.50004 6.34068 2.50003 6.34133 2.49748H6.3434C6.35256 2.49494 6.36107 2.49113 6.37024 2.48731C6.37256 2.48731 6.3738 2.48729 6.37548 2.48475C6.37782 2.48475 6.38008 2.48223 6.38237 2.48223C6.39219 2.47841 6.40201 2.4746 6.41117 2.47206H6.41273C6.43467 2.4657 6.45494 2.45679 6.47621 2.44915C6.4792 2.44915 6.48211 2.44659 6.4857 2.44659C6.49454 2.44405 6.50371 2.44026 6.51285 2.43898C6.51714 2.43644 6.52136 2.43641 6.52529 2.43514C6.53477 2.43132 6.54396 2.4288 6.55279 2.42625C6.55673 2.42625 6.56032 2.42373 6.56326 2.42373C6.59369 2.4161 6.6238 2.40718 6.65423 2.40082C6.65852 2.40082 6.66209 2.39825 6.66667 2.39698C6.67549 2.39444 6.68369 2.39317 6.69318 2.3919C6.69713 2.38935 6.70169 2.38936 6.70628 2.38809C6.71509 2.38555 6.7236 2.38555 6.7331 2.38301H6.73934C6.75766 2.37919 6.77632 2.37665 6.79464 2.37284H6.80577C6.81459 2.37029 6.82245 2.37027 6.83129 2.36899C6.83616 2.36899 6.84111 2.36647 6.84569 2.36647C6.85387 2.36647 6.86206 2.36394 6.87022 2.36267C6.87451 2.36267 6.87873 2.36265 6.88366 2.3601C6.90295 2.35756 6.92293 2.35629 6.94322 2.35502C6.88595 2.34866 6.82704 2.34485 6.76715 2.34485C4.90368 2.34485 2.33625 5.80341 1.17969 10.2809H1.40256C1.7727 9.62069 2.1052 8.99614 2.40924 8.41101C3.21923 5.23864 4.86887 3.07497 6.33438 2.50257Z" fill="url(#paint7_linear_16080_5111)"/>
<path d="M7.3833 3.77707C7.59506 3.57482 7.80745 3.3929 8.0182 3.23136C7.97011 3.12705 7.92037 3.0291 7.867 2.94006C7.6965 3.14613 7.54072 3.41963 7.3833 3.77707Z" fill="#0D82CA"/>
<path d="M7.53919 2.52942C7.66092 2.63118 7.7699 2.77237 7.86973 2.94027C7.90114 2.90084 7.9329 2.86523 7.96595 2.83216C7.82753 2.70242 7.67796 2.59686 7.51562 2.51672C7.52218 2.52054 7.52871 2.52308 7.53552 2.52689C7.53552 2.52689 7.53809 2.52942 7.53919 2.52942Z" fill="#0D82CA"/>
<path d="M2.41016 8.4115C4.10934 5.13609 4.91443 3.06401 6.33542 2.50305C4.87024 3.07673 3.22015 5.23912 2.41016 8.4115Z" fill="url(#paint8_linear_16080_5111)"/>
<path d="M7.96583 2.83215C7.9328 2.8665 7.90139 2.90083 7.86963 2.94026C7.92298 3.0293 7.9727 3.12599 8.02116 3.23284C8.084 3.1845 8.14649 3.1387 8.20867 3.09418C8.13179 2.99878 8.05062 2.91102 7.96583 2.83215Z" fill="#127BCA"/>
<path d="M3.18108 10.2686C3.17061 10.2711 3.16014 10.2711 3.15032 10.2724H3.14442C3.13558 10.2724 3.12641 10.2749 3.11825 10.2749H3.11397C3.09272 10.2775 3.07176 10.2775 3.05147 10.2787H3.04492C4.76472 10.2304 5.55082 9.36927 5.94093 8.12143C6.23743 7.17379 6.48092 6.37623 6.6943 5.70715C5.97399 6.72094 5.25039 7.92936 4.52287 9.28404C4.17204 9.93658 3.63859 10.2088 3.18106 10.2673" fill="url(#paint9_linear_16080_5111)"/>
<path d="M3.17969 10.2675C3.63721 10.209 4.17066 9.93682 4.52148 9.28301C5.249 7.9296 5.97293 6.72118 6.69258 5.70612C6.9544 4.8844 7.1704 4.25603 7.38248 3.77649C5.94805 5.14262 4.50807 7.41314 3.17969 10.2662" fill="url(#paint10_linear_16080_5111)"/>
<path d="M2.40903 8.41125C2.105 8.99765 1.7725 9.62221 1.40234 10.2824H2.05068C2.13642 9.62603 2.25817 9.00146 2.40903 8.41125Z" fill="#05A1E6"/>
<path d="M6.88388 2.36255C6.87863 2.36255 6.87471 2.36507 6.87013 2.36507C6.86227 2.36761 6.85408 2.36764 6.84591 2.36891C6.84104 2.36891 6.83642 2.36889 6.83151 2.37144C6.82266 2.37398 6.8145 2.37401 6.80598 2.37528C6.80202 2.37528 6.79813 2.37526 6.79486 2.3778C6.77619 2.38162 6.75787 2.38416 6.73955 2.38797H6.73331C6.72384 2.39052 6.7153 2.39179 6.70649 2.39306C6.70188 2.3956 6.69732 2.39563 6.69306 2.3969C6.68423 2.39945 6.67538 2.40071 6.66687 2.40199C6.66227 2.40453 6.6587 2.40451 6.65443 2.40451C6.62401 2.41214 6.59389 2.41979 6.56345 2.42869C6.56021 2.42869 6.55692 2.43122 6.55299 2.43122C6.54383 2.43376 6.53498 2.43633 6.5255 2.44015C6.52154 2.44269 6.51698 2.44268 6.51305 2.44395C6.50389 2.44649 6.49472 2.44905 6.48589 2.4516C6.48232 2.4516 6.47934 2.45412 6.47608 2.45412C6.45513 2.46175 6.43451 2.46938 6.41291 2.47574C6.40376 2.47956 6.39392 2.48337 6.38412 2.48591C6.38016 2.48846 6.37658 2.48973 6.37202 2.491C6.36285 2.49354 6.35369 2.49739 6.34517 2.50121C6.34194 2.50375 6.33864 2.50374 6.33636 2.50501C4.91535 3.06597 4.11027 5.13932 2.41109 8.41346C2.26022 9.00367 2.13815 9.62823 2.05273 10.2846H2.14371C2.39996 10.2846 2.4723 10.282 2.76716 10.282H2.78222H2.82607H2.84113H2.84539H2.86045H2.86896H2.87485H2.88662H2.92328H2.95994H2.9907H2.99887H3.05287C3.07316 10.2782 3.09411 10.2782 3.11537 10.2769H3.1193C3.12815 10.2769 3.13698 10.2744 3.14549 10.2744H3.1517C3.16117 10.2744 3.17198 10.2719 3.18245 10.2706C4.51084 7.41751 5.95081 5.14696 7.38524 3.7821C7.54298 3.42467 7.69844 3.1512 7.86862 2.94514C7.76912 2.77596 7.66014 2.63603 7.5384 2.533C7.5384 2.533 7.53509 2.53298 7.53484 2.53044C7.52796 2.52789 7.52143 2.52409 7.51455 2.52155C7.50766 2.51773 7.50177 2.51519 7.4946 2.51138C7.48838 2.50883 7.48118 2.50502 7.47496 2.50121C7.46645 2.49866 7.45957 2.49482 7.45205 2.49228C7.44583 2.48973 7.44028 2.48721 7.43404 2.48467C7.42126 2.47958 7.40852 2.47449 7.39641 2.46813C7.39084 2.46559 7.38562 2.46431 7.38036 2.46177C7.37153 2.45922 7.36138 2.45541 7.35221 2.4516C7.34761 2.44905 7.34239 2.44778 7.33716 2.44651C7.32376 2.44142 7.31066 2.43631 7.29821 2.4325H7.29496C7.2799 2.42741 7.26519 2.42358 7.2498 2.41977C7.24624 2.41722 7.24326 2.41724 7.23967 2.41724C7.22624 2.41343 7.21445 2.40961 7.20171 2.40579C7.19847 2.40579 7.19548 2.40323 7.19288 2.40323C7.16211 2.3956 7.13037 2.38925 7.0983 2.38289C7.095 2.38289 7.09177 2.38037 7.08849 2.38037C7.07475 2.37782 7.06132 2.37527 7.04758 2.374C7.04427 2.37145 7.04233 2.37144 7.03942 2.37144C7.02305 2.36889 7.00701 2.36634 6.99097 2.36507H6.98246C6.96937 2.36253 6.95728 2.36126 6.94516 2.35999C6.92453 2.36253 6.9049 2.36381 6.8856 2.36635" fill="url(#paint11_linear_16080_5111)"/>
<path d="M16.5549 4.30393C16.2281 5.35206 15.9632 6.21573 15.7329 6.92678C16.63 5.69166 17.5135 4.13857 18.355 2.34631C17.3735 2.65541 16.8499 3.3601 16.5549 4.30393Z" fill="url(#paint12_linear_16080_5111)"/>
<path d="M15.7583 9.82036C15.7125 9.84452 15.6667 9.86615 15.6216 9.8865C17.3666 9.10804 19.448 6.02088 20.4446 2.17688H20.2426C17.9531 6.26764 17.2166 9.00627 15.7583 9.82036Z" fill="url(#paint13_linear_16080_5111)"/>
<path d="M14.6215 9.47597C15.0012 9.01296 15.3104 8.2256 15.7326 6.92688C15.2456 7.59595 14.7553 8.17092 14.2648 8.64029C14.2648 8.64283 14.2648 8.64282 14.2622 8.64409C14.3692 8.96464 14.4877 9.24828 14.6215 9.47597Z" fill="#079AE1"/>
<path d="M14.6237 9.47668C14.4943 9.63441 14.3576 9.75526 14.2054 9.8443C14.172 9.86338 14.1383 9.88121 14.104 9.89775C14.2646 9.98424 14.44 10.0427 14.6364 10.0656C14.6652 10.0695 14.6936 10.072 14.7235 10.0732H14.7288C14.7421 10.0732 14.7562 10.0733 14.7706 10.0758H14.7764H14.8193H14.8655H14.8799H14.9125C14.9179 10.0758 14.9233 10.0758 14.9286 10.0732C14.9387 10.0732 14.9495 10.0733 14.96 10.0707H14.9637H14.9755C14.9862 10.0707 14.998 10.0682 15.0095 10.0669H15.012C15.0156 10.0669 15.0191 10.0644 15.0226 10.0644C15.0346 10.0618 15.0471 10.0605 15.0589 10.0593H15.0696C15.083 10.0567 15.0967 10.0555 15.1104 10.0529H15.1131H15.1171C15.1445 10.0465 15.1714 10.0414 15.1986 10.0351C14.9733 9.95241 14.7848 9.75779 14.6225 9.48177" fill="#1969BC"/>
<path d="M11.4028 10.0742C11.5661 10.0742 11.7311 10.059 11.8967 10.0272C12.0499 9.99917 12.2033 9.95589 12.3572 9.90247C12.4851 9.96479 12.6193 10.0119 12.7613 10.0411C12.8716 10.0627 12.9862 10.0742 13.1063 10.0742H11.4028Z" fill="#1E5CB3"/>
<path d="M13.1066 10.0756C13.5098 10.0756 13.8293 10.0286 14.1006 9.89758C14.2612 9.98408 14.4366 10.0426 14.633 10.0655C14.6618 10.0693 14.6903 10.0718 14.7201 10.0731H14.7253C14.7387 10.0731 14.7528 10.0731 14.7671 10.0756H14.7732H14.8161H13.1066Z" fill="#1E5CB3"/>
<path d="M14.8203 10.0751H14.8669H14.8812H14.9137C14.9191 10.0751 14.9244 10.0751 14.9296 10.0725C14.9399 10.0725 14.9506 10.0726 14.9614 10.07H14.9648H14.9769C14.9876 10.07 14.9994 10.0675 15.0106 10.0662H15.0134C15.0168 10.0662 15.0203 10.0637 15.0237 10.0637C15.0356 10.0611 15.0482 10.0611 15.0599 10.0586C15.0639 10.0586 15.0671 10.0586 15.0713 10.056C15.0846 10.0535 15.0983 10.0522 15.1121 10.0497H15.1148H15.1187C15.1462 10.0446 15.173 10.0395 15.2001 10.0319C15.279 10.0611 15.3611 10.0764 15.4499 10.0764L14.8208 10.0789L14.8203 10.0751Z" fill="#1D60B5"/>
<path d="M14.2669 8.64477V8.64221C14.0872 8.81393 13.9078 8.97166 13.7289 9.11413C13.6353 9.1879 13.542 9.25788 13.4478 9.3253C13.5266 9.41943 13.6068 9.50719 13.6912 9.58733C13.8196 9.71198 13.9567 9.81758 14.1062 9.89772C14.1402 9.88118 14.1743 9.86334 14.2074 9.84298C14.3599 9.75394 14.4966 9.63438 14.6259 9.47665C14.492 9.24769 14.374 8.96532 14.2669 8.64477Z" fill="#175FAB"/>
<path d="M19.6084 2.17688H18.7596H18.6751H18.5953H18.5921C18.5371 2.17942 18.4838 2.18195 18.4311 2.18577C18.4063 2.23919 18.3807 2.29135 18.3561 2.34605C17.5148 4.1383 16.6311 5.69143 15.734 6.92527C15.3123 8.22399 15.0027 9.01137 14.623 9.47565C14.7853 9.75167 14.9742 9.94629 15.1987 10.029C15.2052 10.0264 15.2104 10.0264 15.2164 10.0251H15.2199C15.2239 10.0251 15.2282 10.0226 15.2324 10.0226C15.2416 10.0201 15.2514 10.0188 15.2605 10.0162C15.2665 10.0137 15.2713 10.0124 15.2773 10.0111C15.2858 10.0086 15.2946 10.0061 15.3025 10.0048C15.3077 10.0022 15.3129 10.001 15.3181 9.9997C15.3312 9.99588 15.3431 9.99206 15.3555 9.98825C15.3614 9.9857 15.3676 9.98442 15.3741 9.98188C15.3813 9.97934 15.3886 9.97809 15.3951 9.97427C15.4026 9.97173 15.4101 9.97045 15.4167 9.9679C15.4226 9.96536 15.4288 9.96408 15.4344 9.96154C15.449 9.95645 15.4635 9.95137 15.4783 9.94628C15.4822 9.94628 15.486 9.94247 15.4903 9.9412C15.4991 9.93738 15.5083 9.9348 15.5172 9.93099C15.5204 9.92844 15.5244 9.92846 15.5286 9.92718C15.5594 9.91446 15.5911 9.90049 15.6229 9.8865H15.6262C15.6713 9.86615 15.7171 9.84449 15.7627 9.8216C17.2212 9.00624 17.9577 6.26765 20.2472 2.17816H19.6077L19.6084 2.17688Z" fill="url(#paint14_linear_16080_5111)"/>
<path d="M6.94385 2.3562C6.94749 2.3562 6.95074 2.35618 6.95432 2.35872C6.96314 2.35872 6.97199 2.35874 6.98083 2.36128H6.98967C7.0057 2.36383 7.02175 2.36511 7.03811 2.36765C7.0411 2.36765 7.04369 2.36763 7.04629 2.37017C7.05969 2.37272 7.07344 2.37527 7.08719 2.37654C7.09016 2.37654 7.09408 2.3791 7.09735 2.3791C7.12877 2.38546 7.16084 2.39182 7.1916 2.40072C7.19452 2.40072 7.1975 2.40325 7.20012 2.40325C7.21321 2.40579 7.22498 2.4096 7.23807 2.41342C7.24203 2.41342 7.24493 2.41599 7.24855 2.41726C7.26394 2.42108 7.27833 2.42487 7.29339 2.42995C7.29339 2.42995 7.29494 2.42997 7.29669 2.43252C7.30944 2.43633 7.32254 2.44143 7.33596 2.44525C7.34121 2.44779 7.34609 2.44906 7.35102 2.45033C7.36019 2.45415 7.37033 2.45797 7.37916 2.46179C7.38441 2.46179 7.38963 2.46557 7.39517 2.46811C7.40728 2.4732 7.42005 2.47832 7.43249 2.48341C7.43904 2.48595 7.44459 2.48847 7.45082 2.49102C7.45802 2.49483 7.46553 2.49864 7.4734 2.50119C7.47993 2.50373 7.48713 2.50757 7.49334 2.51012C7.50022 2.51393 7.50674 2.51647 7.51331 2.52029C7.67564 2.60042 7.8252 2.70725 7.96364 2.83572C8.0147 2.7823 8.06804 2.73399 8.12335 2.69074C7.82062 2.47577 7.47764 2.35364 7.08197 2.35364C7.03616 2.35364 6.99033 2.35619 6.94387 2.36" fill="#7DCBEC"/>
<path d="M7.96338 2.83314C8.04815 2.912 8.12931 2.99976 8.20622 3.09516C8.2805 3.04301 8.35414 2.9934 8.42811 2.94761C8.33123 2.84967 8.22913 2.76316 8.12276 2.68811C8.06746 2.73136 8.01443 2.77971 7.96338 2.83314Z" fill="#5EC5ED"/>
<path d="M6.94756 2.35671C6.99403 2.35162 7.03985 2.35034 7.08566 2.35034C7.48133 2.35034 7.82431 2.47243 8.12703 2.6874C8.44645 2.43554 8.83263 2.34778 9.36902 2.34778H6.77148C6.83138 2.34778 6.88996 2.35035 6.94756 2.35671Z" fill="url(#paint15_linear_16080_5111)"/>
<path d="M9.36504 2.34778C8.82864 2.34778 8.44247 2.43554 8.12305 2.6874C8.22908 2.76245 8.33119 2.84895 8.42806 2.94562C8.87282 2.66324 9.31332 2.47627 9.74761 2.39487C9.91321 2.36307 10.0785 2.34778 10.2415 2.34778H9.36504Z" fill="url(#paint16_linear_16080_5111)"/>
<path d="M15.7331 6.92641C15.9638 6.21536 16.2279 5.3517 16.5555 4.30357C16.8507 3.35974 17.3733 2.65378 18.3548 2.34595C18.3808 2.2938 18.4052 2.23909 18.4304 2.18567C16.8304 2.28107 16.0826 3.09514 15.7063 4.301C15.0481 6.40617 14.6495 7.76976 14.2656 8.63854C14.7558 8.17044 15.2461 7.59549 15.7331 6.92641Z" fill="url(#paint17_linear_16080_5111)"/>
<path d="M17.3516 10.1119V9.98987H17.9892V10.1119H17.7423V10.7894H17.5987V10.1119H17.3516ZM18.1122 9.98987H18.2894L18.5267 10.5702H18.5361L18.7734 9.98987H18.9505V10.7894H18.8117V10.2405H18.8043L18.5834 10.7878H18.4795L18.2586 10.2388H18.2512V10.7894H18.1122V9.98987Z" fill="black"/>
<path d="M11.3589 14.1429L9.96419 19.4807H9.00763L8.11678 16.2824C8.09487 16.2045 8.07053 16.112 8.04376 16.005C8.01698 15.8979 7.99021 15.7883 7.96344 15.6764C7.9391 15.5644 7.91719 15.4622 7.89772 15.3697C7.88068 15.2748 7.86851 15.2017 7.86121 15.1506C7.85634 15.2017 7.84539 15.2735 7.82835 15.366C7.81131 15.4585 7.79062 15.5607 7.76628 15.6727C7.74438 15.7822 7.72004 15.8918 7.69326 16.0013C7.66649 16.1084 7.64215 16.2033 7.62024 16.2861L6.744 19.4807H5.79109L4.40005 14.1429H5.27995L6.05031 17.2719C6.07465 17.3716 6.09899 17.48 6.12333 17.5968C6.1501 17.7112 6.17444 17.8268 6.19635 17.9436C6.22069 18.0605 6.24259 18.1749 6.26207 18.2868C6.28154 18.3964 6.29736 18.4962 6.30953 18.5862C6.3217 18.4937 6.33752 18.3915 6.35699 18.2795C6.37646 18.1651 6.39715 18.0495 6.41906 17.9327C6.4434 17.8134 6.46774 17.699 6.49208 17.5895C6.51885 17.48 6.54563 17.3814 6.5724 17.2938L7.44134 14.1429H8.29568L9.18287 17.3047C9.20965 17.3948 9.2352 17.4958 9.25954 17.6077C9.28632 17.7197 9.31188 17.8341 9.33622 17.9509C9.36056 18.0678 9.38246 18.181 9.40193 18.2905C9.42141 18.4 9.43723 18.4986 9.4494 18.5862C9.46644 18.4669 9.48834 18.3306 9.51512 18.1773C9.54189 18.024 9.57231 17.8682 9.60639 17.71C9.64047 17.5518 9.67454 17.4057 9.70862 17.2719L10.4753 14.1429H11.3589ZM13.6663 14.1429C14.3551 14.1429 14.8578 14.2841 15.1742 14.5665C15.4906 14.8488 15.6488 15.2443 15.6488 15.753C15.6488 15.9843 15.6123 16.2045 15.5393 16.4139C15.4687 16.6208 15.3519 16.8045 15.1888 16.9652C15.0257 17.1234 14.8103 17.2487 14.5426 17.3412C14.2772 17.4337 13.9499 17.48 13.5604 17.48H12.9909V19.4807H12.1146V14.1429H13.6663ZM13.6079 14.8695H12.9909V16.7498H13.4692C13.7442 16.7498 13.9779 16.7181 14.1702 16.6548C14.3624 16.5891 14.5085 16.4857 14.6083 16.3445C14.7081 16.2033 14.758 16.0171 14.758 15.7859C14.758 15.4768 14.6643 15.2468 14.4768 15.0959C14.2919 14.9449 14.0022 14.8695 13.6079 14.8695ZM17.5838 19.4807H16.7149V14.1429H19.7306V14.8804H17.5838V16.5453H19.5919V17.2792H17.5838V19.4807Z" fill="#135A95"/>
</g>
<defs>
<linearGradient id="paint0_linear_16080_5111" x1="190.723" y1="-123.472" x2="190.723" y2="847.343" gradientUnits="userSpaceOnUse">
<stop stop-color="#0994DC"/>
<stop offset="0.350006" stop-color="#66CEF5"/>
<stop offset="0.846161" stop-color="#127BCA"/>
<stop offset="1" stop-color="#127BCA"/>
</linearGradient>
<linearGradient id="paint1_linear_16080_5111" x1="200.064" y1="-126.924" x2="200.064" y2="868.639" gradientUnits="userSpaceOnUse">
<stop stop-color="#0E76BC"/>
<stop offset="0.360001" stop-color="#36AEE8"/>
<stop offset="0.846161" stop-color="#00ADEF"/>
<stop offset="1" stop-color="#00ADEF"/>
</linearGradient>
<linearGradient id="paint2_linear_16080_5111" x1="192.489" y1="752.477" x2="192.489" y2="-39.6728" gradientUnits="userSpaceOnUse">
<stop stop-color="#1C63B7"/>
<stop offset="0.5" stop-color="#33BDF2"/>
<stop offset="1" stop-color="#33BDF2" stop-opacity="0.419608"/>
</linearGradient>
<linearGradient id="paint3_linear_16080_5111" x1="190.223" y1="-132.856" x2="190.223" y2="900.794" gradientUnits="userSpaceOnUse">
<stop stop-color="#166AB8"/>
<stop offset="0.399994" stop-color="#36AEE8"/>
<stop offset="0.846161" stop-color="#0798DD"/>
<stop offset="1" stop-color="#0798DD"/>
</linearGradient>
<linearGradient id="paint4_linear_16080_5111" x1="242.245" y1="-141.326" x2="242.245" y2="957.817" gradientUnits="userSpaceOnUse">
<stop stop-color="#124379"/>
<stop offset="0.389999" stop-color="#1487CB"/>
<stop offset="0.780228" stop-color="#165197"/>
<stop offset="1" stop-color="#165197"/>
</linearGradient>
<linearGradient id="paint5_linear_16080_5111" x1="6.69238" y1="126.971" x2="162.08" y2="126.971" gradientUnits="userSpaceOnUse">
<stop stop-color="#33BDF2" stop-opacity="0.698039"/>
<stop offset="1" stop-color="#1DACD8"/>
</linearGradient>
<linearGradient id="paint6_linear_16080_5111" x1="331.921" y1="749.952" x2="331.921" y2="-21.71" gradientUnits="userSpaceOnUse">
<stop stop-color="#136AB4"/>
<stop offset="0.6" stop-color="#59CAF5" stop-opacity="0.54902"/>
<stop offset="1" stop-color="#59CAF5" stop-opacity="0.235294"/>
</linearGradient>
<linearGradient id="paint7_linear_16080_5111" x1="1.1753" y1="399.144" x2="577.529" y2="399.144" gradientUnits="userSpaceOnUse">
<stop stop-color="#05A1E6" stop-opacity="0.247059"/>
<stop offset="1" stop-color="#05A1E6"/>
</linearGradient>
<linearGradient id="paint8_linear_16080_5111" x1="198.667" y1="736.961" x2="198.667" y2="-53.1597" gradientUnits="userSpaceOnUse">
<stop stop-color="#318ED5"/>
<stop offset="1" stop-color="#38A7E4"/>
</linearGradient>
<linearGradient id="paint9_linear_16080_5111" x1="185.509" y1="422.68" x2="185.509" y2="-345.361" gradientUnits="userSpaceOnUse">
<stop stop-color="#05A1E6"/>
<stop offset="1" stop-color="#05A1E6" stop-opacity="0.54902"/>
</linearGradient>
<linearGradient id="paint10_linear_16080_5111" x1="213.32" y1="652.851" x2="213.32" y2="3.84264" gradientUnits="userSpaceOnUse">
<stop stop-color="#1959A6"/>
<stop offset="0.5" stop-color="#05A1E6"/>
<stop offset="0.917587" stop-color="#7EC5EA"/>
<stop offset="1" stop-color="#7EC5EA"/>
</linearGradient>
<linearGradient id="paint11_linear_16080_5111" x1="349.867" y1="751.671" x2="129.852" y2="79.3597" gradientUnits="userSpaceOnUse">
<stop stop-color="#165096"/>
<stop offset="1" stop-color="#0D82CA"/>
</linearGradient>
<linearGradient id="paint12_linear_16080_5111" x1="146.824" y1="354.989" x2="146.824" y2="-12.7625" gradientUnits="userSpaceOnUse">
<stop stop-color="#05A1E6"/>
<stop offset="0.873627" stop-color="#0495D6"/>
<stop offset="1" stop-color="#0495D6"/>
</linearGradient>
<linearGradient id="paint13_linear_16080_5111" x1="330.384" y1="-29.9031" x2="-12.3842" y2="731.068" gradientUnits="userSpaceOnUse">
<stop stop-color="#38A7E4" stop-opacity="0.329412"/>
<stop offset="0.961533" stop-color="#0E88D3"/>
<stop offset="1" stop-color="#0E88D3"/>
</linearGradient>
<linearGradient id="paint14_linear_16080_5111" x1="295.928" y1="-0.144529" x2="295.928" y2="802.15" gradientUnits="userSpaceOnUse">
<stop stop-color="#168CD4"/>
<stop offset="0.5" stop-color="#1C87CC"/>
<stop offset="1" stop-color="#154B8D"/>
</linearGradient>
<linearGradient id="paint15_linear_16080_5111" x1="50.0823" y1="-67.2177" x2="53.559" y2="16.9248" gradientUnits="userSpaceOnUse">
<stop stop-color="#97D6EE"/>
<stop offset="0.703293" stop-color="#55C1EA"/>
<stop offset="1" stop-color="#55C1EA"/>
</linearGradient>
<linearGradient id="paint16_linear_16080_5111" x1="22.7192" y1="-0.827153" x2="38.4352" y2="-89.9575" gradientUnits="userSpaceOnUse">
<stop stop-color="#7ACCEC"/>
<stop offset="1" stop-color="#3FB7ED"/>
</linearGradient>
<linearGradient id="paint17_linear_16080_5111" x1="222.493" y1="43.2472" x2="222.493" y2="827.972" gradientUnits="userSpaceOnUse">
<stop stop-color="#1DA7E7"/>
<stop offset="1" stop-color="#37ABE7" stop-opacity="0"/>
</linearGradient>
<clipPath id="clip0_16080_5111">
<rect width="20.3496" height="20.3496" fill="white" transform="translate(1.99951 1.5)"/>
</clipPath>
</defs>
</svg>
